@startuml
'https://plantuml.com/class-diagram

abstract class  Builder{
+buildPartA()
+buildPartB()
+buildPartC()
+getResult()
}

class ConcreteBuilder extends Builder{
+buildPartA()
+buildPartB()
+buildPartC()
+getResult()
}

Product --* Builder

class Director{
-builder:Builder
+construct()
}

Director o--> Builder


@enduml